<svg xmlns="http://www.w3.org/2000/svg" width="640" height="480"><g><path fill="#0957A4" d="M-17.22 0H674v478.54H-17.22z"/><g fill="#fff"><path d="M-17.16 205.1v136.72l197.47 136.7H377.8l-394.94-273.4zM81.5 0h-98.8v68.4l592.55 410.22h98.8v-68.4L81.5 0zM278.98 0h197.47l197.47 136.7v136.72L278.98 0z"/></g><path fill="#EF4035" d="M298.2 265.78c-19.43-17.7-22.77-47.02-7.8-68.62 8.16-11.8 23.16-15.58 33.48-8.43 8.2 5.54 9.5 18.34 3.08 29.8-1.02 1.47-.65 3.5.83 4.52 1.46 1.02 3.48.65 4.5-.83 8.46-10.04 20.9-13.3 28.98-7.6 10.32 7.15 12.07 22.5 3.9 34.3-14.95 21.62-43.6 28.82-66.98 16.86z"/><path fill="#EF4035" d="M45.5 368.65c-19.42-17.7-22.75-47.03-7.8-68.63 8.17-11.8 23.17-15.57 33.5-8.42 8.18 5.54 9.5 18.34 3.07 29.8-1.02 1.46-.65 3.5.83 4.5s3.5.66 4.52-.8c8.45-10.06 20.9-13.32 28.97-7.62 10.32 7.15 12.06 22.52 3.9 34.32-14.96 21.6-43.6 28.8-67 16.85z"/><path fill="#EF4035" d="M553.9 170.92c-19.44-17.7-22.78-47.02-7.82-68.63 8.17-11.8 23.16-15.58 33.5-8.43 8.17 5.54 9.5 18.34 3.07 29.8-1.02 1.47-.65 3.5.82 4.5 1.48 1.03 3.5.67 4.52-.8 8.45-10.05 20.9-13.32 28.97-7.6 10.32 7.14 12.07 22.5 3.9 34.3-14.96 21.6-43.6 28.8-66.98 16.85z"/><path fill="#EF4035" d="M127.74 147.77c-19.43-17.7-22.76-47.02-7.8-68.62 8.16-11.8 23.16-15.58 33.48-8.43 8.2 5.54 9.5 18.34 3.1 29.8-1.04 1.47-.67 3.5.8 4.52 1.48 1.02 3.5.65 4.53-.83 8.45-10.03 20.9-13.3 28.97-7.6 10.33 7.16 12.07 22.52 3.9 34.32-14.95 21.6-43.6 28.8-66.98 16.85z"/><path fill="#EF4035" d="M468.66 383.8c-19.43-17.7-22.77-47.03-7.8-68.63 8.16-11.8 23.16-15.58 33.48-8.43 8.2 5.54 9.5 18.35 3.08 29.8-1.02 1.47-.65 3.5.83 4.52 1.47 1.02 3.5.65 4.52-.83 8.45-10.04 20.9-13.3 28.97-7.6 10.33 7.15 12.07 22.5 3.9 34.32-14.95 21.6-43.6 28.8-66.98 16.85z"/><path fill="#EF4035" d="M443.12 94.24c-19.42-17.7-22.76-47.03-7.8-68.63 8.16-11.8 23.16-15.56 33.5-8.4 8.17 5.53 9.5 18.33 3.07 29.78-1.03 1.47-.66 3.5.8 4.52 1.5 1.02 3.5.65 4.53-.82 8.46-10.05 20.9-13.32 28.97-7.6 10.33 7.14 12.08 22.5 3.9 34.3-14.95 21.6-43.58 28.8-66.98 16.86z"/><path fill="#EF4035" d="M156.27 445.33c-19.42-17.7-22.76-47.02-7.8-68.63 8.17-11.8 23.16-15.57 33.5-8.42 8.17 5.54 9.5 18.34 3.07 29.8-1.02 1.47-.65 3.5.82 4.5 1.48 1.03 3.5.67 4.52-.8 8.46-10.05 20.9-13.32 28.97-7.6 10.33 7.14 12.08 22.5 3.9 34.3-14.95 21.6-43.58 28.8-66.98 16.85z"/></g></svg>