<?xml version="1.0" standalone="no"?>
<!DOCTYPE svg PUBLIC "-//W3C//DTD SVG 20010904//EN"
 "http://www.w3.org/TR/2001/REC-SVG-20010904/DTD/svg10.dtd">
<svg version="1.0" xmlns="http://www.w3.org/2000/svg"
 width="1136.000000pt" height="1136.000000pt" viewBox="0 0 1136.000000 1136.000000"
 preserveAspectRatio="xMidYMid meet">
<metadata>
Created by potrace 1.11, written by Peter Selinger 2001-2013
</metadata>
<g transform="translate(0.000000,1136.000000) scale(0.100000,-0.100000)"
fill="#000000" stroke="none">
<path d="M5477 11094 c-1 -1 -54 -5 -117 -8 -113 -7 -140 -9 -249 -20 -58 -6
-130 -15 -171 -22 -14 -2 -43 -7 -65 -10 -22 -3 -85 -15 -140 -26 -55 -11
-113 -22 -129 -24 -16 -2 -47 -9 -70 -16 -22 -6 -45 -11 -50 -9 -4 1 -14 -4
-22 -10 -8 -6 -14 -9 -14 -6 0 3 -27 -3 -60 -13 -33 -10 -60 -17 -60 -15 0 1
-78 -24 -172 -57 -95 -32 -179 -60 -185 -60 -7 -1 -13 -5 -13 -10 0 -4 -7 -8
-15 -8 -8 0 -23 -4 -33 -9 -9 -4 -64 -30 -122 -57 -58 -27 -117 -56 -131 -66
-14 -10 -29 -15 -33 -11 -3 3 -6 1 -6 -5 0 -7 -5 -12 -11 -12 -6 0 -30 -13
-54 -29 -24 -16 -52 -32 -63 -35 -11 -4 -27 -15 -37 -26 -10 -11 -22 -20 -27
-20 -13 0 -152 -103 -227 -169 -87 -75 -155 -143 -221 -221 -30 -36 -58 -66
-62 -68 -5 -2 -8 -10 -8 -18 0 -8 -3 -14 -7 -14 -5 0 -26 -30 -48 -66 -22 -36
-50 -81 -62 -99 -12 -18 -19 -36 -15 -39 3 -3 1 -6 -5 -6 -5 0 -16 -18 -23
-40 -7 -22 -16 -40 -20 -40 -4 0 -7 -6 -7 -12 0 -7 -7 -29 -15 -48 -16 -36
-27 -66 -28 -75 0 -3 -6 -21 -14 -40 -8 -19 -17 -51 -20 -71 -4 -20 -8 -40
-11 -44 -2 -3 -7 -20 -9 -36 -3 -16 -8 -40 -11 -53 -27 -134 -21 -621 10 -804
38 -228 95 -405 197 -617 47 -96 144 -268 158 -280 3 -3 17 -23 30 -45 13 -22
26 -42 30 -45 3 -3 30 -39 61 -80 31 -41 70 -91 87 -110 17 -19 40 -46 52 -60
67 -79 224 -229 234 -223 6 3 8 3 4 -2 -4 -4 -2 -12 5 -19 25 -23 103 -82 147
-111 25 -16 54 -37 65 -46 11 -10 25 -19 30 -20 6 -1 26 -12 47 -25 33 -21 85
-49 239 -130 32 -16 101 -50 154 -75 l95 -44 -5 -95 c-8 -138 -22 -482 -24
-597 -1 -48 -3 -52 -23 -47 -13 3 -39 7 -58 10 -19 3 -42 8 -50 11 -8 3 -28 7
-45 9 -16 2 -41 6 -55 9 -14 3 -34 8 -45 10 -32 8 -58 14 -100 25 -22 6 -44
12 -50 13 -24 7 -92 29 -110 37 -11 4 -36 13 -55 20 -19 7 -44 16 -55 20 -11
5 -79 32 -150 59 -215 83 -457 213 -625 335 -30 22 -56 43 -58 48 -2 4 -10 8
-17 8 -7 0 -15 3 -17 8 -4 8 -90 77 -98 77 -3 1 -16 7 -30 15 -14 8 -58 15
-101 17 -65 2 -83 -2 -130 -25 -112 -56 -178 -159 -164 -257 4 -22 8 -98 10
-170 3 -120 5 -150 21 -260 3 -22 7 -60 9 -85 2 -25 4 -45 5 -45 2 0 4 -14 14
-105 4 -36 9 -78 12 -95 2 -16 6 -50 8 -75 3 -25 8 -61 10 -80 5 -31 9 -64 21
-165 3 -28 13 -107 20 -165 2 -14 6 -48 9 -75 3 -28 7 -64 10 -80 5 -28 13
-96 21 -175 2 -19 6 -51 9 -70 3 -19 8 -60 11 -90 3 -30 8 -66 10 -80 3 -14 7
-47 10 -75 3 -27 8 -66 11 -85 3 -19 7 -60 10 -90 2 -30 6 -66 9 -80 5 -29 12
-82 20 -160 3 -30 8 -68 11 -85 2 -16 6 -50 9 -75 2 -25 6 -56 9 -70 2 -14 7
-52 11 -85 3 -33 8 -73 11 -90 2 -16 7 -52 10 -80 3 -27 6 -61 8 -75 2 -14 6
-47 10 -75 13 -105 17 -142 21 -190 2 -27 6 -57 8 -65 3 -8 9 -44 12 -80 4
-36 8 -76 10 -90 2 -14 6 -45 9 -70 3 -25 8 -64 11 -87 3 -24 7 -62 10 -85 3
-24 8 -61 11 -83 3 -22 8 -56 10 -75 8 -80 14 -130 24 -210 6 -47 13 -103 15
-125 3 -22 7 -56 10 -75 2 -19 7 -57 10 -85 3 -27 8 -66 10 -85 5 -31 8 -56
19 -150 2 -14 7 -54 11 -90 4 -36 8 -72 10 -80 1 -8 6 -44 10 -80 7 -68 9 -88
19 -155 6 -37 13 -95 21 -170 2 -16 6 -51 9 -78 3 -26 8 -66 11 -90 2 -23 7
-55 9 -72 10 -64 19 -142 20 -177 0 -21 5 -38 9 -38 5 0 6 -4 2 -9 -3 -6 -1
-40 5 -76 6 -37 13 -109 16 -160 5 -93 21 -160 46 -191 62 -75 118 -110 193
-121 22 -3 42 -6 45 -6 27 -6 127 28 309 104 119 49 225 94 236 99 25 12 126
51 140 55 6 1 19 6 30 10 58 23 121 47 130 49 23 5 121 39 130 46 8 6 50 20
75 24 3 1 10 4 15 7 6 3 30 12 55 19 25 7 50 17 55 20 6 4 42 17 80 29 39 12
77 25 85 28 8 3 17 7 20 8 3 1 18 7 33 13 16 7 30 12 32 12 2 0 16 5 32 11 15
7 35 13 43 14 13 2 152 42 460 135 86 26 139 58 167 99 23 34 24 55 8 131 -2
14 -7 35 -9 48 -3 12 2 38 10 57 19 47 18 84 -11 258 -14 82 -24 156 -21 164
3 7 2 13 -3 13 -4 0 -8 6 -8 13 -1 25 -13 153 -17 177 -3 14 -7 57 -11 95 -3
39 -8 84 -10 100 -6 32 -13 108 -19 190 -3 28 -7 70 -10 95 -3 25 -8 83 -11
130 -4 47 -8 96 -11 110 -2 14 -7 59 -10 100 -3 41 -7 93 -9 116 -6 56 -20
239 -30 369 -4 60 -11 148 -21 260 -2 33 -7 98 -10 145 -5 85 -7 116 -18 245
-13 150 -18 225 -31 435 -3 41 -7 102 -10 135 -7 89 -15 220 -20 305 -2 41 -7
113 -10 160 -3 47 -8 116 -10 153 l-4 68 97 -7 c185 -14 760 -7 912 11 19 2
67 7 105 10 39 4 81 8 95 10 62 9 114 16 143 20 33 3 92 13 131 21 11 2 37 7
56 10 97 15 381 83 510 121 401 119 771 287 1070 486 70 47 221 158 246 181 7
6 31 27 55 46 48 38 243 232 298 295 106 123 252 339 320 475 18 36 37 72 42
80 5 8 12 22 15 30 3 8 12 29 19 45 8 17 23 57 36 90 12 33 26 66 32 73 5 6 7
12 4 12 -3 0 5 33 19 73 13 39 26 81 28 92 2 11 9 40 16 65 7 25 14 54 16 65
14 72 27 144 30 170 2 17 6 41 9 55 3 14 8 230 12 480 6 494 2 560 -52 805
-48 222 -173 526 -292 712 -18 29 -33 56 -33 62 0 5 -3 11 -7 13 -5 2 -32 36
-61 77 -113 156 -308 364 -437 466 -27 22 -52 42 -55 45 -3 4 -43 34 -90 68
-47 34 -90 66 -96 71 -7 5 -15 7 -18 4 -3 -4 -6 -1 -6 6 0 6 -10 16 -22 21
-13 6 -67 37 -121 70 -55 33 -102 60 -107 60 -4 0 -19 9 -34 21 -15 11 -32 22
-39 23 -6 1 -59 25 -117 53 -159 77 -549 223 -596 223 -7 0 -25 5 -41 12 -15
6 -37 13 -47 15 -10 2 -55 12 -99 24 -44 11 -100 24 -126 30 -25 5 -57 12 -71
15 -14 3 -36 7 -50 9 -71 13 -139 25 -170 29 -19 3 -46 8 -60 10 -28 5 -108
14 -185 22 -27 2 -75 7 -105 10 -30 4 -80 8 -110 10 -58 5 -568 12 -573 8z
m503 -690 c152 -1 253 -8 289 -20 8 -3 35 -7 60 -10 25 -3 50 -8 56 -12 5 -4
17 -7 25 -9 59 -8 247 -77 354 -130 105 -51 248 -136 266 -158 7 -8 18 -15 25
-15 8 0 15 -4 17 -8 2 -4 31 -29 66 -56 99 -76 312 -292 374 -379 12 -17 31
-41 41 -52 23 -25 135 -195 172 -260 80 -141 182 -357 205 -433 5 -15 21 -63
38 -107 16 -44 29 -82 29 -85 1 -3 7 -25 13 -50 7 -25 17 -62 21 -82 5 -21 14
-57 19 -80 14 -60 18 -78 24 -118 3 -19 7 -44 10 -55 22 -108 27 -319 12 -460
-5 -44 -10 -89 -11 -100 -1 -11 -5 -31 -9 -45 -3 -14 -8 -38 -10 -55 -2 -16
-5 -30 -6 -30 -1 0 -3 -9 -4 -20 -2 -11 -6 -33 -10 -50 -3 -16 -8 -39 -10 -50
-9 -48 -83 -267 -103 -305 -7 -14 -13 -33 -13 -42 0 -10 -4 -18 -10 -18 -5 0
-10 -6 -10 -12 0 -18 -114 -237 -129 -248 -3 -3 -12 -17 -20 -32 -8 -15 -22
-37 -33 -47 -10 -11 -18 -25 -18 -31 0 -5 -4 -10 -8 -10 -4 0 -15 -12 -24 -27
-38 -64 -236 -272 -333 -348 -27 -22 -51 -43 -53 -47 -2 -5 -8 -8 -14 -8 -5 0
-16 -7 -25 -15 -17 -17 -129 -92 -185 -123 -19 -11 -46 -26 -59 -34 -13 -7
-32 -19 -41 -27 -10 -8 -18 -11 -18 -8 0 4 -20 -4 -44 -18 -57 -32 -260 -115
-280 -115 -9 0 -16 -5 -16 -12 0 -6 -3 -9 -6 -5 -3 3 -18 1 -33 -5 -51 -20
-249 -74 -305 -82 -21 -4 -41 -8 -45 -10 -3 -3 -25 -7 -47 -10 -22 -4 -49 -8
-59 -10 -11 -2 -42 -7 -70 -11 -109 -15 -97 -14 -255 -30 -114 -11 -764 -25
-806 -17 -21 4 -21 8 -19 160 2 87 6 182 9 212 3 30 8 82 11 115 7 76 13 94
28 91 7 -1 26 -5 42 -9 17 -3 46 -9 65 -11 19 -3 44 -8 55 -10 12 -2 52 -7 90
-11 39 -4 88 -9 110 -11 204 -20 596 -20 745 0 136 18 124 16 190 30 19 4 44
9 55 11 11 2 20 4 20 5 0 1 13 3 29 5 16 2 36 7 45 11 18 8 28 11 57 18 12 2
68 23 125 45 202 79 368 194 502 349 25 29 117 167 117 176 0 2 12 30 27 62
15 33 28 64 29 69 1 6 9 30 17 55 8 25 18 65 22 90 4 25 9 54 12 65 6 24 16
290 17 435 0 98 -6 170 -18 230 -3 14 -8 39 -11 55 -10 46 -46 166 -62 205
-59 136 -127 264 -163 307 -5 7 -10 15 -10 18 0 14 -119 153 -193 227 -98 95
-270 212 -387 260 -76 32 -126 51 -140 53 -3 0 -9 3 -15 7 -5 3 -28 9 -50 12
-22 4 -47 9 -55 11 -45 14 -284 27 -303 17 -5 -2 -27 -6 -50 -7 -76 -6 -216
-39 -302 -71 -54 -21 -219 -97 -225 -104 -3 -3 -27 -19 -55 -35 -60 -34 -132
-84 -200 -139 -62 -49 -222 -210 -261 -262 -16 -22 -39 -50 -51 -64 -13 -14
-23 -28 -23 -32 0 -3 -6 -13 -14 -20 -7 -8 -37 -52 -65 -98 -28 -47 -56 -92
-61 -100 -13 -22 -105 -203 -106 -210 0 -3 -12 -30 -26 -60 -26 -58 -86 -232
-108 -312 l-12 -47 -36 27 c-140 105 -304 256 -350 323 -9 13 -18 26 -22 29
-11 9 -70 88 -70 93 0 3 -15 28 -34 56 -48 71 -104 191 -137 293 -58 182 -69
316 -38 448 12 47 22 90 23 95 1 6 4 15 7 20 4 6 10 24 14 40 11 41 13 45 43
115 8 19 16 37 17 40 7 22 32 66 40 72 5 4 7 8 3 8 -4 0 1 15 12 33 11 17 24
41 29 53 13 29 132 198 142 202 5 2 9 8 9 13 0 30 273 306 363 368 12 8 24 18
27 21 9 11 163 117 220 150 89 53 260 141 260 134 0 -4 6 -2 13 4 18 15 188
82 207 82 9 0 20 3 24 8 4 4 12 8 17 8 5 1 10 2 12 4 1 1 9 3 17 5 8 1 41 10
72 19 31 10 70 19 85 22 15 3 36 7 45 10 10 3 30 7 45 10 16 2 55 8 88 14 33
5 74 12 92 14 17 2 37 7 42 11 6 3 11 2 11 -3 0 -6 13 -7 33 -3 18 5 40 7 50
5 9 -1 17 3 17 9 0 8 3 8 8 2 4 -6 75 -10 172 -11z m10 -2058 c38 -9 132 -46
140 -56 3 -3 21 -16 40 -27 29 -18 90 -74 146 -136 48 -53 154 -243 154 -276
0 -6 4 -19 9 -29 17 -31 23 -50 36 -107 4 -22 9 -44 11 -50 13 -56 19 -93 17
-110 -1 -11 -4 -33 -7 -50 -6 -44 -41 -141 -71 -191 -32 -55 -90 -114 -145
-149 -44 -28 -170 -79 -170 -69 0 3 -6 2 -12 -3 -7 -4 -20 -9 -28 -12 -31 -8
-339 -10 -371 -1 -19 4 -54 11 -79 13 -25 3 -67 11 -95 17 -27 7 -61 14 -75
16 -32 6 -237 66 -310 91 -48 16 -55 22 -53 43 4 35 27 114 79 270 67 199 77
225 86 228 4 2 8 11 8 19 0 31 154 303 171 303 6 0 8 4 5 8 -6 10 115 138 169
178 38 28 135 77 135 69 0 -2 13 2 30 8 32 14 124 15 180 3z m-2932 -2896 c5
0 41 -13 81 -29 39 -17 71 -28 71 -25 0 3 6 2 13 -3 6 -4 14 -8 17 -9 3 0 12
-4 20 -7 15 -6 151 -50 160 -52 3 -1 30 -8 60 -17 55 -17 241 -65 276 -73 11
-2 39 -8 64 -14 25 -5 59 -13 75 -16 17 -3 53 -10 80 -16 28 -5 62 -11 78 -12
15 -1 27 -4 27 -8 0 -3 10 -5 23 -5 34 0 117 -16 121 -23 3 -4 7 -128 11 -276
8 -322 7 -285 6 -315 -1 -14 1 -108 4 -210 3 -102 7 -282 9 -400 9 -443 23
-954 28 -1052 1 -21 -1 -41 -5 -44 -4 -4 -3 -12 0 -17 4 -6 8 -54 9 -107 2
-93 13 -389 19 -503 l3 -59 -45 -19 c-25 -10 -50 -19 -56 -19 -7 0 -23 -6 -37
-13 -14 -7 -47 -21 -75 -31 -27 -10 -63 -24 -80 -31 -112 -50 -105 -49 -126
-26 -11 12 -18 21 -15 21 2 0 0 17 -5 38 -5 20 -12 48 -15 62 -3 14 -12 44
-20 68 -7 23 -14 49 -14 57 0 8 -6 34 -14 57 -12 37 -91 334 -101 378 -2 8
-43 161 -90 340 -48 179 -89 332 -90 340 -2 8 -4 16 -4 18 -1 1 -2 5 -2 10 -1
4 -7 27 -15 52 -7 25 -22 79 -33 120 -11 41 -32 120 -46 175 -15 55 -29 108
-31 118 -2 9 -7 27 -10 40 -3 12 -7 29 -9 37 -2 8 -4 15 -5 15 -2 0 -5 14 -14
53 -3 12 -7 26 -10 30 -3 5 -7 19 -10 33 -9 42 -14 62 -36 144 -12 44 -23 87
-25 95 -1 8 -15 58 -30 110 -14 52 -28 106 -31 120 -3 14 -13 54 -23 90 -11
36 -22 79 -26 95 -11 46 -13 54 -40 155 -24 85 -85 315 -84 315 0 0 -2 7 -5
15 -10 30 -66 249 -66 259 0 5 18 1 40 -10 21 -10 43 -19 48 -19z"/>
</g>
</svg>
