<?xml version="1.0" encoding="utf-8"?>
<!-- Generator: Adobe Illustrator 17.0.0, SVG Export Plug-In . SVG Version: 6.00 Build 0)  -->
<!DOCTYPE svg PUBLIC "-//W3C//DTD SVG 1.1//EN" "http://www.w3.org/Graphics/SVG/1.1/DTD/svg11.dtd">
<svg version="1.1" xmlns="http://www.w3.org/2000/svg" xmlns:xlink="http://www.w3.org/1999/xlink" x="0px" y="0px"
	 width="192.667px" height="284px" viewBox="0 0 192.667 284" enable-background="new 0 0 192.667 284" xml:space="preserve">
<g id="Layer_1" display="none">
</g>
<g id="Layer_2">
	<g id="XMLID_1_">
		<g>
			<path fill="#2C3E50" d="M186.4,75.895v16.651c-4.484,39.653-41.762,61.855-86.941,64.4v-10.98
				c87.475-7.877,64.012-119.784,5.72-122.207c-1.939-0.073-3.83-0.048-5.72,0.048V13.264c40.38,0.873,82.336,19.899,86.917,62.388
				L186.4,75.895z"/>
			<path fill="#2C3E50" d="M99.459,113.876c20.166,1.6,20.723-13.888,16.87-25.304c-2.642-7.902-9.501-14.979-16.87-13.21V63.194
				c39.096-8.192,63.406,63.382,0,63.867V113.876z"/>
			<path fill="#2C3E50" d="M99.459,145.967v10.98c-6.932,0.388-14.034,0.339-21.257-0.218c0.339,11.271,5.672,84.105,8.144,97.533
				c0.436,2.448,1.212,3.296-0.291,4.823c-1.454,1.503-4.242,2.036-6.302,2.642c-11.683,3.442-7.465,2.012-21.644,7.102v-30.273
				c6.835-2.545-3.151,0.17,4.339-2.012c-0.679-4.072-1.212-22.056-1.624-40.186s-0.703-36.381-0.8-41.011
				c-6.375-0.921-12.676-2.254-18.881-4.048v-12.628c9.307,3.563,19.754,5.769,30.879,6.884l5.696,0.388
				c3.03,0.194,7.174,0.461,10.301,0.485C92.042,146.476,95.847,146.306,99.459,145.967z"/>
			<path fill="#2C3E50" d="M99.459,113.876v13.185c-6.011,0.048-12.628-0.145-20.626-1.769c0,0-0.63,5.575-0.824,10.204
				c-0.242,5.72-0.291,10.447-0.291,10.447l-5.696-0.388c0,0-0.048-7.393,0.145-9.816c0.509-5.647,0.606-5.575,1.406-11.683
				c0,0-23.293-8.653-32.43-16.845V27.104c2.981-1.891,6.278-3.636,9.938-5.235c13.719-5.987,30.903-8.992,48.379-8.604v10.543
				c-44.137,2.206-74.119,51.069-34.878,78.022c0.897-3.757,2.254-7.732,4.048-11.586c3.514-7.586,8.75-14.931,15.658-19.996
				c5.187-3.781,10.301-6.035,15.173-7.053v12.167c-6.787,1.648-13.985,10.834-18.712,33.885
				C88.333,112.033,94.49,113.464,99.459,113.876z"/>
			<path fill="#2C3E50" d="M58.109,238.555v30.273c-12.337,4.411-9.38,3.393-21.451,8.435c-2.545,1.066-5.211,1.163-7.465-0.436
				c-2.278-1.575-3.369-4.145-2.957-6.884L9.245,131.424c0.388-2.593,2.036-4.629,4.508-5.55c2.448-0.945,5.041-0.509,7.053,1.188
				c5.841,4.872,12.701,8.701,20.336,11.61v12.628c-5.09-1.503-10.107-3.296-14.979-5.429l25.183,95.013
				C58.618,236.931,51.031,241.173,58.109,238.555z"/>
			<path fill="#2C3E50" d="M41.142,27.104v80.106C16.42,85.008,7.985,48.021,41.142,27.104z"/>
		</g>
		<g>
		</g>
	</g>
</g>
<g id="Layer_3">
	<g id="XMLID_3_">
		<g>
			<path fill="#2A3D5E" d="M186.4,69.472v16.676c-4.484,39.629-41.762,61.831-86.941,64.376c-6.932,0.412-14.034,0.339-21.257-0.194
				c0.339,11.246,5.332,84.13,8.144,97.509c0.412,1.915,0.873,4.629-0.873,5.89c-0.63,0.461-27.365,8.386-48.815,17.112
				c-2.569,1.042-5.211,1.163-7.465-0.412c-2.278-1.6-3.369-4.169-2.957-6.884L9.245,125.001c0.388-2.593,2.036-4.629,4.508-5.55
				c2.448-0.945,5.041-0.509,7.053,1.188c5.841,4.872,12.701,8.701,20.336,11.61c8.411,3.224,9.283,3.49,19.051,5.235
				c0,0,0.339-9.186,0.436-12.434c0.218-6.011,0.897-11.174,0.897-11.174s0,0-1.066-0.509c-6.981-3.369-13.622-7.49-19.318-12.579
				c-24.723-22.178-33.157-59.189,0-80.106c2.981-1.891,6.278-3.636,9.938-5.235c13.719-5.987,30.903-8.992,48.379-8.604
				c40.38,0.897,82.336,19.899,86.917,62.388L186.4,69.472z M99.459,107.452c20.166,1.6,20.723-13.888,16.87-25.304
				c-2.642-7.877-9.501-14.979-16.87-13.185c-6.787,1.624-13.985,10.81-18.712,33.86C88.333,105.61,94.49,107.04,99.459,107.452z
				 M99.459,139.568c87.475-7.877,64.012-119.808,5.72-122.207c-1.939-0.097-3.83-0.073-5.72,0.024
				c-44.137,2.23-74.119,51.069-34.878,78.022c0.897-3.757,2.254-7.708,4.048-11.561c3.514-7.611,8.75-14.955,15.658-19.996
				c5.187-3.805,10.301-6.059,15.173-7.077c39.096-8.192,63.406,63.382,0,63.867c-6.253,0.073-13.016-0.509-21.087-2.012
				c0,0-0.654,7.053-0.654,9.453c0,9.162,0.073,11.974,0.073,11.974c3.49,0.242,6.641-0.073,10.228-0.048
				C92.042,140.052,95.847,139.883,99.459,139.568z M62.447,230.12c-0.97-10.083-2.206-71.962-2.424-81.197
				c-6.375-0.897-12.676-2.254-18.881-4.048c-5.09-1.479-10.107-3.296-14.979-5.429l25.183,95.013
				C58.86,231.429,59.103,231.429,62.447,230.12z"/>
		</g>
		<g>
			<path fill="none" stroke="#FFFFFF" stroke-width="0.5" stroke-miterlimit="10" d="M186.376,69.229
				C181.795,26.74,139.839,7.738,99.459,6.841c-17.476-0.388-34.66,2.618-48.379,8.604c-3.66,1.6-6.956,3.345-9.938,5.235
				c-33.157,20.917-24.723,57.929,0,80.106c5.696,5.09,12.337,9.21,19.318,12.579c1.066,0.509,1.066,0.509,1.066,0.509
				s-0.679,5.163-0.897,11.174c-0.097,3.248-0.436,12.434-0.436,12.434c-9.768-1.745-10.64-2.012-19.051-5.235
				c-7.635-2.909-14.494-6.738-20.336-11.61c-2.012-1.697-4.605-2.133-7.053-1.188c-2.472,0.921-4.12,2.957-4.508,5.55
				l16.991,138.544c-0.412,2.715,0.679,5.284,2.957,6.884c2.254,1.575,4.896,1.454,7.465,0.412
				c21.451-8.726,48.185-16.651,48.815-17.112c1.745-1.26,1.285-3.975,0.873-5.89c-2.812-13.379-7.805-86.263-8.144-97.509
				c7.223,0.533,14.325,0.606,21.257,0.194c45.179-2.545,82.457-24.747,86.941-64.376V69.472L186.376,69.229z"/>
			<path fill="none" stroke="#FFFFFF" stroke-width="0.5" stroke-miterlimit="10" d="M51.346,234.459l-25.183-95.013
				c4.872,2.133,9.889,3.951,14.979,5.429c6.205,1.794,12.507,3.151,18.881,4.048c0.218,9.235,1.454,71.114,2.424,81.197
				C59.103,231.429,58.86,231.429,51.346,234.459z"/>
			<path fill="none" stroke="#FFFFFF" stroke-width="0.5" stroke-miterlimit="10" d="M99.459,139.568
				c-3.611,0.315-7.417,0.485-11.44,0.436c-3.587-0.024-6.738,0.291-10.228,0.048c0,0-0.073-2.812-0.073-11.974
				c0-2.4,0.654-9.453,0.654-9.453c8.071,1.503,14.834,2.084,21.087,2.012c63.406-0.485,39.096-72.059,0-63.867
				c-4.872,1.018-9.986,3.272-15.173,7.077c-6.908,5.041-12.143,12.386-15.658,19.996c-1.794,3.854-3.151,7.805-4.048,11.561
				c-39.241-26.953-9.259-75.792,34.878-78.022c1.891-0.097,3.781-0.121,5.72-0.024C163.471,19.76,186.933,131.69,99.459,139.568z"
				/>
			<path fill="none" stroke="#FFFFFF" stroke-width="0.5" stroke-miterlimit="10" d="M80.747,102.823
				c4.726-23.05,11.925-32.236,18.712-33.86c7.368-1.794,14.228,5.308,16.87,13.185c3.854,11.416,3.296,26.904-16.87,25.304
				C94.49,107.04,88.333,105.61,80.747,102.823z"/>
		</g>
	</g>
	<path fill="none" stroke="#0C0D17" stroke-width="0.2" stroke-miterlimit="10" d="M52.698,135.861"/>
</g>
<g id="Layer_4">
</g>
</svg>
